<svg xmlns="http://www.w3.org/2000/svg" viewBox="0 0 512 512" role="img" aria-label="Grave Robber Punk logo">
  <defs>
    <radialGradient id="g" cx="50%" cy="35%" r="70%">
      <stop offset="0" stop-color="#3bff9f" stop-opacity=".35"/>
      <stop offset=".45" stop-color="#7b1bff" stop-opacity=".18"/>
      <stop offset="1" stop-color="#050507"/>
    </radialGradient>
    <filter id="rough"><feTurbulence baseFrequency="0.08" numOctaves="3" seed="9"/><feDisplacementMap in="SourceGraphic" scale="2"/></filter>
  </defs>
  <rect width="512" height="512" rx="40" fill="url(#g)"/>
  <circle cx="384" cy="112" r="62" fill="#e9ffe8" opacity=".88"/>
  <path d="M36 378c55-34 88-24 129-58 43-36 75-104 141-100 66 4 89 72 120 111 19 24 34 37 54 47v98H36z" fill="#08080b"/>
  <path d="M100 386h312" stroke="#3bff9f" stroke-width="6" stroke-linecap="round" opacity=".55"/>
  <g filter="url(#rough)">
    <path d="M154 358V228c0-57 46-103 103-103s103 46 103 103v130" fill="#101016" stroke="#d7d0bd" stroke-width="12"/>
    <path d="M194 358V236c0-35 28-63 63-63s63 28 63 63v122" fill="#050507" stroke="#6930c3" stroke-width="8"/>
    <path d="M158 358h204v44H158z" fill="#111118" stroke="#d7d0bd" stroke-width="10"/>
    <path d="M216 252h88M260 208v92" stroke="#d7d0bd" stroke-width="12" stroke-linecap="round"/>
  </g>
  <path d="M60 430c58-34 113 34 170 0s105 34 222 0" fill="none" stroke="#3bff9f" stroke-width="5" opacity=".5"/>
  <text x="256" y="466" text-anchor="middle" font-family="Arial Black, Impact, sans-serif" font-size="38" fill="#f4f0df" letter-spacing="2">GRAVE ROBBER</text>
</svg>
